<?xml version="1.0" standalone="no"?>
<!DOCTYPE svg PUBLIC "-//W3C//DTD SVG 20010904//EN"
 "http://www.w3.org/TR/2001/REC-SVG-20010904/DTD/svg10.dtd">
<svg version="1.0" xmlns="http://www.w3.org/2000/svg"
 width="512.000000pt" height="512.000000pt" viewBox="0 0 512.000000 512.000000"
 preserveAspectRatio="xMidYMid meet">
<metadata>
Created by potrace 1.11, written by Peter Selinger 2001-2013
</metadata>
<g transform="translate(0.000000,512.000000) scale(0.100000,-0.100000)"
fill="#000000" stroke="none">
<path d="M4643 4504 c-35 -28 -64 -30 -304 -20 -123 5 -225 -9 -334 -45 -70
-22 -135 -63 -135 -84 0 -29 -38 -55 -79 -55 -54 0 -73 -26 -58 -81 13 -51 4
-60 -69 -70 -61 -8 -97 -32 -89 -60 9 -26 -47 -75 -107 -94 -61 -20 -96 -45
-62 -45 11 0 24 -3 27 -6 10 -11 -14 -47 -52 -79 -104 -87 -121 -117 -68 -123
36 -4 34 -26 -4 -59 -75 -66 -99 -91 -108 -115 -8 -22 -6 -29 12 -41 32 -22
15 -43 -83 -97 -106 -59 -133 -92 -134 -166 -1 -52 -2 -55 -31 -63 -29 -8
-491 -6 -630 4 -107 7 -322 7 -395 0 -185 -18 -304 -81 -387 -205 -58 -88
-126 -227 -137 -281 -2 -13 -8 -42 -13 -64 -15 -67 -4 -162 27 -232 46 -104
92 -158 324 -383 130 -126 145 -166 92 -252 -15 -23 -43 -68 -62 -98 -43 -69
-45 -112 -5 -166 39 -53 65 -76 216 -188 166 -123 193 -146 262 -215 76 -76
126 -141 163 -210 53 -100 136 -168 188 -154 43 11 52 84 18 158 -32 71 -200
241 -397 405 -74 62 -202 189 -222 222 -23 37 -22 43 15 102 32 50 176 246
188 256 19 15 89 120 98 147 15 44 8 73 -38 173 -47 103 -52 121 -40 140 18
29 74 -20 180 -159 58 -75 198 -147 329 -167 20 -3 39 -8 42 -10 7 -4 127 -23
194 -30 21 -2 51 -7 65 -10 56 -12 326 -16 353 -5 37 14 42 32 31 112 -11 77
-3 117 26 144 27 24 52 11 61 -31 14 -67 90 -179 276 -403 113 -136 217 -283
226 -319 7 -30 -18 -73 -58 -99 -93 -61 -237 -73 -328 -26 -39 20 -97 23 -128
8 -33 -17 -109 -100 -109 -119 0 -25 23 -33 150 -53 80 -13 183 -6 251 17 35
12 146 62 246 111 l183 90 -49 97 c-158 318 -250 511 -256 539 -7 33 7 51 28
36 25 -19 99 -34 139 -28 111 17 259 139 319 262 60 125 71 312 31 508 -25
118 -28 310 -7 400 30 131 18 186 -58 269 -25 27 -55 69 -68 94 -24 50 -37
136 -21 145 5 4 34 -17 63 -46 45 -44 93 -85 164 -140 5 -4 48 -35 95 -68 115
-83 221 -192 239 -247 8 -24 28 -55 45 -69 27 -23 36 -25 89 -19 109 10 156
74 143 193 -7 63 -37 155 -75 232 -27 54 -66 161 -77 212 -29 136 -37 195 -49
369 -14 194 -34 245 -87 225 -24 -9 -77 43 -103 102 -13 29 -30 53 -37 53 -7
-1 -27 -12 -45 -26z m-582 -421 c-33 -131 -257 -516 -370 -636 -52 -56 -144
-119 -243 -167 -94 -45 -121 -45 -89 -2 18 25 43 53 175 192 29 30 65 73 82
95 16 22 35 46 42 54 19 20 49 82 57 119 5 23 17 40 38 52 50 29 73 56 164
193 47 70 97 137 111 148 36 28 48 12 33 -48z m212 -1100 c9 -38 19 -90 22
-116 4 -27 9 -59 11 -70 6 -25 7 -225 1 -247 -2 -8 -7 -31 -11 -50 -5 -19 -15
-48 -23 -64 -33 -63 -46 9 -46 254 -1 354 13 439 46 293z"/>
<path d="M344 3476 c-65 -36 -134 -121 -158 -194 -9 -26 -19 -79 -21 -117 -6
-79 -28 -113 -73 -112 -58 2 -81 -11 -88 -48 -13 -72 17 -238 59 -318 61 -118
251 -233 440 -268 181 -32 382 0 493 79 105 75 166 96 183 63 14 -25 0 -60
-48 -120 l-35 -45 33 20 c80 46 138 147 151 263 11 99 38 175 89 254 23 34 41
67 41 74 0 21 -45 26 -168 20 -144 -8 -168 -11 -312 -49 -118 -31 -236 -40
-314 -25 -80 15 -165 75 -225 158 -68 92 -76 147 -36 244 45 110 41 151 -11
121z"/>
<path d="M4468 2168 c-50 -54 -62 -95 -36 -124 10 -11 57 -35 105 -53 111 -43
150 -78 168 -152 25 -108 5 -197 -59 -260 -43 -43 -89 -61 -150 -58 -61 3 -78
-5 -100 -48 -34 -66 -11 -151 42 -154 76 -5 173 42 257 125 71 70 133 185 164
306 45 180 -2 260 -238 400 -55 33 -104 60 -108 60 -3 0 -23 -19 -45 -42z"/>
<path d="M2441 1973 c-22 -19 -40 -104 -56 -268 -27 -269 -19 -286 236 -546
272 -276 354 -372 384 -446 19 -47 76 -87 149 -104 66 -14 90 -10 94 19 6 38
-77 139 -284 349 -279 283 -319 326 -359 385 -52 80 -54 116 -10 293 43 172
49 262 22 292 -36 41 -140 56 -176 26z"/>
</g>
</svg>
