<svg width="80" height="62" fill="none" xmlns="http://www.w3.org/2000/svg"><path fill-rule="evenodd" clip-rule="evenodd" d="M37.181 44.948c.238-2.06.476-4.118.634-4.672.158-.475 1.03-.713 1.98-.475 1.82.475 1.82 1.029.316 6.889-.475 1.9.159 2.85 5.147 7.76 5.385 5.305 6.493 6.968 4.91 6.968-1.505 0-3.247-1.03-3.247-1.9 0-.476-2.296-3.168-5.068-5.94-4.91-4.909-4.988-4.988-4.672-8.63zM68.698.763c2.296.238 3.722.08 4.038-.475.396-.554.792-.317 1.188.792.396.95 1.109 1.504 1.663 1.346.792-.317 1.109.871 1.267 4.434.158 2.93.871 6.177 1.821 7.998 1.98 3.96 1.742 6.493-.712 6.81-1.347.237-1.98-.159-2.297-1.346-.237-.871-1.9-2.534-3.642-3.801-1.822-1.188-3.722-2.772-4.276-3.405-.871-1.03-.95-1.03-1.03.158 0 .792.713 2.138 1.505 2.93 1.267 1.267 1.425 2.059.87 4.355-.316 1.584-.316 4.355.16 6.177.95 4.355.237 7.918-1.98 9.898-2.297 2.138-3.801 2.533-5.543 1.663-1.109-.555-.792.554 1.425 4.83l2.772 5.622-3.88 1.9c-2.851 1.505-4.593 1.9-6.731 1.505-2.772-.396-2.85-.555-1.584-1.9 1.03-1.11 1.584-1.268 3.168-.555 2.138 1.03 5.86-.237 5.86-1.9 0-.555-1.822-3.089-3.96-5.623-2.217-2.533-3.96-5.147-3.96-5.78 0-.713-.395-.95-.87-.633-.475.237-.713 1.346-.475 2.375.316 1.742.079 1.9-2.613 1.9-1.584 0-4.91-.395-7.444-.87-3.484-.713-4.83-1.426-6.097-3.168-2.138-3.009-3.484-2.93-1.9.08 1.187 2.375 1.187 2.533-1.584 5.859-1.505 1.9-2.772 3.8-2.772 4.197 0 .475 1.346 1.98 3.01 3.405 5.542 4.672 7.284 6.572 7.284 8.077 0 2.375-2.296 1.583-3.721-1.347-.792-1.583-3.168-4.038-5.94-5.938-4.83-3.485-5.225-4.197-3.404-6.652 1.663-2.217 1.584-2.613-2.376-6.176-4.434-4.039-5.147-7.048-2.85-11.561 2.534-5.068 4.672-5.78 15.124-5.147 5.147.237 8.71.158 8.631-.238-.317-1.742.238-2.534 2.296-3.484 1.188-.554 1.742-1.188 1.109-1.346-.633-.238-.396-.871.792-1.9 1.346-1.03 1.504-1.426.633-1.505-.791 0-.554-.554.792-1.584 1.346-1.108 1.584-1.583.792-1.663-.633 0-.317-.316.792-.633 1.108-.317 1.9-1.03 1.821-1.505-.158-.554.475-.95 1.346-.95 1.03 0 1.426-.396 1.109-1.188-.317-.712 0-1.187.792-1.187.712 0 1.267-.238 1.267-.634 0-1.346 4.988-2.692 8.314-2.217zm-14.016 18.37c2.772-1.424 4.118-3.008 7.206-8.63 2.692-4.83 1.98-6.414-.792-1.742-.95 1.504-1.98 2.771-2.375 2.771-.396 0-.713.475-.713 1.109 0 .554-1.425 2.534-3.167 4.355-3.405 3.484-3.484 3.88-.159 2.138zm12.036 13.779c.396-.633.713-2.455.713-3.96-.08-1.504-.396-3.88-.713-5.146-.475-1.742-.633-.634-.712 3.959 0 4.355.158 5.939.712 5.147zm-64.14-11.72c0-1.108.554-2.692 1.346-3.484 1.822-2.058 2.772-1.742 1.663.555-.712 1.504-.633 2.296.475 3.88 1.663 2.534 4.514 3.325 8.394 2.138 1.584-.475 4.117-.871 5.463-.871 2.455 0 2.534.079 1.347 1.742-.713.95-1.267 2.692-1.267 3.88 0 1.188-.792 2.692-1.742 3.563-1.03.792-1.347.95-.792.317 1.98-2.296 1.03-3.247-1.505-1.425-2.93 2.217-7.76 2.296-11.56.316C1.47 30.378.44 28.715.043 25.31c-.158-1.821.08-2.296 1.188-2.217.95.08 1.346-.475 1.346-1.9zm66.83 16.233c-.79 1.188-.553 1.583 1.585 2.296 1.9.634 2.534 1.346 2.692 3.326.237 2.455-1.663 4.434-3.96 3.96-.554-.16-1.108.553-1.266 1.504-.555 3.484 4.988 1.187 6.651-2.772 2.059-4.988 1.505-6.176-4.434-9.423-.238-.158-.792.396-1.267 1.109z" fill="url(#paint0_linear)"/><defs><linearGradient id="paint0_linear" x1="11" y1="31" x2="116" y2="31" gradientUnits="userSpaceOnUse"><stop stop-color="#B4876B"/><stop offset=".286" stop-color="#C69F86"/><stop offset=".453" stop-color="#EACDBB"/><stop offset=".589" stop-color="#CDA890"/><stop offset="1" stop-color="#B4876B"/></linearGradient></defs></svg>